<svg xmlns="http://www.w3.org/2000/svg" width="376" height="54" viewBox="0 0 376 54">
    <g fill="none" fill-rule="nonzero">
        <path fill="#333" d="M17.4 53.424c9.6 0 16.74-2.28 21.42-6.84 4.68-4.56 7.02-10.752 7.02-18.576s-2.4-13.932-7.2-18.324c-4.8-4.392-11.688-6.588-20.664-6.588H.192v50.328H17.4zm1.152-9.936h-7.128v-30.6h6.264c5.712 0 9.948 1.332 12.708 3.996 2.76 2.664 4.14 6.468 4.14 11.412 0 4.944-1.38 8.712-4.14 11.304-2.76 2.592-6.708 3.888-11.844 3.888zM69.96 54c5.88 0 11.004-2.064 15.372-6.192l-6.048-6.552c-2.448 2.544-5.568 3.816-9.36 3.816-2.352 0-4.464-.672-6.336-2.016-1.872-1.344-2.976-3.072-3.312-5.184H88.5v-5.76c0-5.616-1.86-10.032-5.58-13.248-3.72-3.216-8.244-4.824-13.572-4.824-5.328 0-9.948 1.8-13.86 5.4-3.912 3.6-5.868 8.448-5.868 14.544s1.92 10.956 5.76 14.58C59.22 52.188 64.08 54 69.96 54zm7.596-23.832H60.564c.288-2.208 1.32-3.96 3.096-5.256 1.776-1.296 3.732-1.944 5.868-1.944s3.948.624 5.436 1.872c1.488 1.248 2.352 3.024 2.592 5.328zM112.08 54c5.808 0 11.208-2.592 16.2-7.776l-6.408-7.2c-2.88 3.6-6.12 5.4-9.72 5.4-2.736 0-5.124-.912-7.164-2.736-2.04-1.824-3.06-4.38-3.06-7.668 0-3.288 1.02-5.856 3.06-7.704 2.04-1.848 4.476-2.772 7.308-2.772 1.776 0 3.564.408 5.364 1.224 1.8.816 3.324 1.968 4.572 3.456l5.616-7.344a21.39 21.39 0 0 0-7.524-5.112c-2.856-1.152-5.676-1.728-8.46-1.728-5.568 0-10.38 1.86-14.436 5.58-4.056 3.72-6.084 8.544-6.084 14.472 0 5.928 2.004 10.728 6.012 14.4C101.364 52.164 106.272 54 112.08 54zm31.5-.576V0h-10.8v53.424h10.8zm19.944.576c4.104 0 7.548-1.752 10.332-5.256v4.68h10.152V28.728c0-5.088-1.488-8.808-4.464-11.16-2.976-2.352-6.816-3.528-11.52-3.528-6.528 0-12.336 1.848-17.424 5.544l4.824 6.984c1.44-1.104 3.204-2.028 5.292-2.772 2.088-.744 4.068-1.116 5.94-1.116 4.368 0 6.552 2.064 6.552 6.192v.216h-8.064c-4.992 0-8.928.984-11.808 2.952-2.88 1.968-4.32 4.932-4.32 8.892 0 3.96 1.392 7.128 4.176 9.504C155.976 52.812 159.42 54 163.524 54zm2.34-8.856c-1.92 0-3.396-.372-4.428-1.116-1.032-.744-1.548-1.812-1.548-3.204 0-2.688 2.16-4.032 6.48-4.032h6.768v1.872c0 1.968-.732 3.54-2.196 4.716-1.464 1.176-3.156 1.764-5.076 1.764zm36.108 8.28V36.648c0-3.744.792-6.756 2.376-9.036 1.584-2.28 3.984-3.42 7.2-3.42h2.088l-.072-10.152c-2.16.048-4.284.624-6.372 1.728s-3.828 2.448-5.22 4.032v-5.112h-10.8v38.736h10.8zm28.152.576c4.104 0 7.548-1.752 10.332-5.256v4.68h10.152V28.728c0-5.088-1.488-8.808-4.464-11.16-2.976-2.352-6.816-3.528-11.52-3.528-6.528 0-12.336 1.848-17.424 5.544l4.824 6.984c1.44-1.104 3.204-2.028 5.292-2.772 2.088-.744 4.068-1.116 5.94-1.116 4.368 0 6.552 2.064 6.552 6.192v.216h-8.064c-4.992 0-8.928.984-11.808 2.952-2.88 1.968-4.32 4.932-4.32 8.892 0 3.96 1.392 7.128 4.176 9.504C222.576 52.812 226.02 54 230.124 54zm2.34-8.856c-1.92 0-3.396-.372-4.428-1.116-1.032-.744-1.548-1.812-1.548-3.204 0-2.688 2.16-4.032 6.48-4.032h6.768v1.872c0 1.968-.732 3.54-2.196 4.716-1.464 1.176-3.156 1.764-5.076 1.764z"/>
        <path fill="#A32144" d="M265.116 53.424V9.648l34.344 43.776h3.024v-50.4h-3.672V46.8L264.54 3.024h-3.096v50.4h3.672zm66.348.288c2.88 0 5.556-.528 8.028-1.584 2.472-1.056 4.524-2.568 6.156-4.536l-2.088-2.376c-1.392 1.728-3.132 3.036-5.22 3.924-2.088.888-4.356 1.332-6.804 1.332-2.976 0-5.652-.624-8.028-1.872a14.282 14.282 0 0 1-5.652-5.292c-1.392-2.28-2.136-4.884-2.232-7.812h32.328l.072-1.008c0-3.648-.78-6.912-2.34-9.792-1.56-2.88-3.696-5.124-6.408-6.732-2.712-1.608-5.772-2.412-9.18-2.412-3.408 0-6.48.816-9.216 2.448-2.736 1.632-4.884 3.9-6.444 6.804-1.56 2.904-2.34 6.18-2.34 9.828 0 3.696.828 6.984 2.484 9.864 1.656 2.88 3.948 5.136 6.876 6.768 2.928 1.632 6.264 2.448 10.008 2.448zm13.032-21.024h-28.8c.192-2.688.924-5.1 2.196-7.236 1.272-2.136 2.964-3.792 5.076-4.968 2.112-1.176 4.488-1.764 7.128-1.764 2.64 0 5.016.6 7.128 1.8 2.112 1.2 3.816 2.856 5.112 4.968 1.296 2.112 2.016 4.512 2.16 7.2zm22.932 21.024c1.488 0 2.916-.228 4.284-.684 1.368-.456 2.508-1.116 3.42-1.98l-1.512-2.52c-1.536 1.392-3.48 2.088-5.832 2.088-2.304 0-4.044-.636-5.22-1.908-1.176-1.272-1.764-3.132-1.764-5.58V18.936h11.952V15.84h-11.952V7.632h-3.6v8.208h-6.912v3.096h6.912v24.552c0 3.216.888 5.724 2.664 7.524 1.776 1.8 4.296 2.7 7.56 2.7z"/>
    </g>
</svg>
