<svg class="icon" style="width: 1em; height: 1em;vertical-align: middle;fill: #ffffff;overflow: hidden;" viewBox="0 0 1024 1024" version="1.1" xmlns="http://www.w3.org/2000/svg"><path d="M847.476364 263.330909c-117.620364-115.968-283.252364-154.856727-432.267636-101.399273C242.688 223.813818 135.400727 385.186909 138.589091 563.362909l-60.509091-46.778182c-15.243636-11.776-37.166545-8.96-48.965818 6.283636-11.776 15.266909-8.983273 37.189818 6.283636 48.965818l123.042909 95.092364c6.353455 4.910545 13.870545 7.284364 21.341091 7.284364 0.628364 0 1.256727-0.186182 1.885091-0.209455 0.674909 0.046545 1.349818 0.209455 2.024727 0.209455 8.192 0 16.384-2.862545 23.016727-8.680727l108.334545-95.092364c14.498909-12.706909 15.918545-34.769455 3.211636-49.268364-12.730182-14.475636-34.769455-15.918545-49.268364-3.211636l-60.253091 52.898909c-6.260364-152.017455 83.712-290.699636 230.097455-343.226182 123.485091-44.288 261.306182-11.589818 359.68 85.410909 97.652364 96.279273 132.096 232.610909 89.856 355.793455-38.818909 113.221818-135.796364 196.538182-259.421091 222.882909-123.461818 26.228364-245.713455-10.193455-327.028364-97.512727-13.149091-14.103273-35.234909-14.941091-49.338182-1.745455-14.103273 13.125818-14.894545 35.234909-1.745455 49.338182 77.381818 83.083636 184.901818 128.139636 299.240727 128.139636 30.789818 0 62.091636-3.258182 93.393455-9.937455C791.272727 928.512 907.52 828.136727 954.368 691.479273 1005.358545 542.673455 964.398545 378.624 847.476364 263.330909zM522.798545 326.539636c-19.293091 0-34.909091 15.616-34.909091 34.909091l0 232.238545c0 19.269818 15.616 34.909091 34.909091 34.909091l232.238545 0c19.269818 0 34.909091-15.639273 34.909091-34.909091s-15.639273-34.909091-34.909091-34.909091l-197.329455 0 0-197.329455C557.730909 342.178909 542.091636 326.539636 522.798545 326.539636z" /></svg>
