<svg xmlns="http://www.w3.org/2000/svg" width="32" height="32" viewBox="0 0 32 32">
    <path fill="#ffffff" fill-rule="nonzero" d="M28.945 26.63a4.04 4.04 0 0 0 .867-2.505 4.067 4.067 0 0 0-4.062-4.063 4.067 4.067 0 0 0-4.063 4.063c0 .64.15 1.246.415 1.785a8.662 8.662 0 0 0-2.313-1.657 5.23 5.23 0 0 0 1.461-3.628 5.256 5.256 0 0 0-5.25-5.25 5.256 5.256 0 0 0-5.25 5.25 5.23 5.23 0 0 0 1.46 3.628 8.668 8.668 0 0 0-2.312 1.657 4.04 4.04 0 0 0 .415-1.785 4.067 4.067 0 0 0-4.063-4.063 4.067 4.067 0 0 0-4.063 4.063c0 .945.325 1.814.868 2.505A6.253 6.253 0 0 0 0 32h2.5a3.754 3.754 0 0 1 5.532-3.3 8.577 8.577 0 0 0-.657 3.3h2.5A6.132 6.132 0 0 1 16 25.875 6.132 6.132 0 0 1 22.125 32h2.5a8.577 8.577 0 0 0-.657-3.3A3.75 3.75 0 0 1 29.5 32H32a6.253 6.253 0 0 0-3.055-5.37zM6.25 22.563c.862 0 1.563.7 1.563 1.562 0 .862-.701 1.563-1.563 1.563s-1.563-.701-1.563-1.563.701-1.563 1.563-1.563zm7-1.938a2.753 2.753 0 0 1 2.75-2.75 2.753 2.753 0 0 1 2.75 2.75 2.753 2.753 0 0 1-2.75 2.75 2.753 2.753 0 0 1-2.75-2.75zm12.5 1.938c.862 0 1.563.7 1.563 1.562 0 .862-.701 1.563-1.563 1.563s-1.563-.701-1.563-1.563.701-1.563 1.563-1.563zM2.749 18.58a13.52 13.52 0 0 1-.19-1.33h6.467c.243-.499.51-.968.849-1.4v-1.1c.074-1.715.329-3.362.695-4.875h4.18V13h2.5V9.875h4.18c.366 1.513.62 3.16.695 4.875v1.1c.34.432.606.901.85 1.4h6.467c-.042.45-.106.894-.19 1.33a6.636 6.636 0 0 1 2.064 2.076C31.766 19.166 32 17.6 32 16c0-4.274-1.664-8.292-4.686-11.314A15.895 15.895 0 0 0 16 0 15.895 15.895 0 0 0 4.686 4.686 15.895 15.895 0 0 0 0 16c0 1.6.234 3.166.684 4.656A6.639 6.639 0 0 1 2.75 18.58zm25.28-8.705a13.398 13.398 0 0 1 1.413 4.875H24.6a28.54 28.54 0 0 0-.608-4.875h4.037zm-1.652-2.5h-3.07a18.456 18.456 0 0 0-.974-2.364 14.39 14.39 0 0 0-.73-1.292 13.576 13.576 0 0 1 4.774 3.656zM17.25 2.819c1.03.522 2.025 1.666 2.847 3.31.198.396.382.812.552 1.246H17.25V2.819zm-5.347 3.31c.822-1.644 1.818-2.788 2.847-3.31v4.556h-3.4c.171-.434.355-.85.553-1.246zm-1.507-2.41c-.255.401-.499.831-.729 1.292a18.527 18.527 0 0 0-.975 2.364h-3.07a13.576 13.576 0 0 1 4.774-3.656zM3.971 9.875h4.037A28.54 28.54 0 0 0 7.4 14.75H2.558c.161-1.741.653-3.387 1.413-4.875z"/>
</svg>
