<svg xmlns="http://www.w3.org/2000/svg" width="32" height="32" viewBox="0 0 32 32">
    <path fill="#ffffff" fill-rule="nonzero" d="M10.938 14.563h2.5a2.628 2.628 0 0 1 2.624-2.626 2.628 2.628 0 0 1 2.625 2.626h2.5a5.12 5.12 0 0 0-2.072-4.115c.476-.629.76-1.412.76-2.26a3.754 3.754 0 0 0-3.75-3.75 3.754 3.754 0 0 0-3.75 3.75c0 .822.267 1.583.718 2.202a5.12 5.12 0 0 0-2.155 4.172zm5.187-7.626c.69 0 1.25.561 1.25 1.25 0 .69-.56 1.25-1.25 1.25s-1.25-.56-1.25-1.25c0-.689.56-1.25 1.25-1.25zM28.25 24.5c-.336 0-.66.045-.97.128l-4.289-6.246a10.478 10.478 0 0 0 3.572-7.882c0-5.79-4.71-10.5-10.5-10.5s-10.5 4.71-10.5 10.5c0 3.116 1.364 5.92 3.528 7.844l-4.367 6.285A3.747 3.747 0 0 0 0 28.25 3.754 3.754 0 0 0 3.75 32a3.754 3.754 0 0 0 3.75-3.75 3.73 3.73 0 0 0-.718-2.202l4.36-6.275c1.119.596 2.358.996 3.67 1.152v3.769a3.756 3.756 0 0 0-2.562 3.556A3.754 3.754 0 0 0 16 32a3.754 3.754 0 0 0 3.75-3.75 3.756 3.756 0 0 0-2.438-3.512v-3.813a10.418 10.418 0 0 0 3.62-1.125l4.288 6.245a3.728 3.728 0 0 0-.72 2.205A3.754 3.754 0 0 0 28.25 32 3.754 3.754 0 0 0 32 28.25a3.754 3.754 0 0 0-3.75-3.75zm-24.5 5c-.69 0-1.25-.56-1.25-1.25S3.06 27 3.75 27 5 27.56 5 28.25s-.56 1.25-1.25 1.25zm4.313-19c0-4.411 3.588-8 8-8 4.41 0 8 3.589 8 8s-3.59 8-8 8c-4.412 0-8-3.589-8-8zM16 29.5c-.69 0-1.25-.56-1.25-1.25S15.31 27 16 27s1.25.56 1.25 1.25-.56 1.25-1.25 1.25zm12.25 0c-.69 0-1.25-.56-1.25-1.25S27.56 27 28.25 27s1.25.56 1.25 1.25-.56 1.25-1.25 1.25z"/>
</svg>
