<svg xmlns="http://www.w3.org/2000/svg" width="32" height="32" viewBox="0 0 32 32">
    <path fill="#ffffff" fill-rule="nonzero" d="M28.962 26.688a3.728 3.728 0 0 0 .663-2.125 3.754 3.754 0 0 0-3.75-3.75 3.754 3.754 0 0 0-3.75 3.75c0 .773.236 1.492.638 2.09-.72.415-1.347.97-1.846 1.63A6.217 6.217 0 0 0 19.1 26.67c.41-.601.65-1.327.65-2.108a3.754 3.754 0 0 0-3.75-3.75 3.754 3.754 0 0 0-3.75 3.75c0 .78.24 1.507.65 2.108a6.211 6.211 0 0 0-1.817 1.611 6.215 6.215 0 0 0-1.758-1.577A3.727 3.727 0 0 0 10 24.563a3.754 3.754 0 0 0-3.75-3.75 3.754 3.754 0 0 0-3.75 3.75c0 .766.231 1.479.627 2.073A6.17 6.17 0 0 0 0 32h2.5a3.67 3.67 0 0 1 3.667-3.667A3.671 3.671 0 0 1 9.833 32h2.5A3.67 3.67 0 0 1 16 28.333 3.67 3.67 0 0 1 19.667 32h2.5a3.67 3.67 0 0 1 3.666-3.667A3.67 3.67 0 0 1 29.5 32H32a6.17 6.17 0 0 0-3.038-5.312zM6.25 23.313c.69 0 1.25.56 1.25 1.25 0 .689-.56 1.25-1.25 1.25S5 25.252 5 24.563c0-.69.56-1.25 1.25-1.25zm9.75 0c.69 0 1.25.56 1.25 1.25 0 .689-.56 1.25-1.25 1.25s-1.25-.561-1.25-1.25c0-.69.56-1.25 1.25-1.25zm9.875 0c.69 0 1.25.56 1.25 1.25 0 .689-.56 1.25-1.25 1.25s-1.25-.561-1.25-1.25c0-.69.56-1.25 1.25-1.25zM0 0v2.5h1.875v12.063a3.754 3.754 0 0 0 3.75 3.75h20.75a3.754 3.754 0 0 0 3.75-3.75V2.5H32V0H0zm27.625 14.563c0 .689-.56 1.25-1.25 1.25H5.625c-.69 0-1.25-.561-1.25-1.25V2.5h23.25v12.063zm-18.304-.93l-1.767-1.767 5.727-5.728 3.875 3.875 5.491-5.49 1.768 1.767-7.259 7.26-3.875-3.876-3.96 3.96z"/>
</svg>
