<svg xmlns="http://www.w3.org/2000/svg" width="26" height="32" viewBox="0 0 26 32">
    <path fill="#ffffff" fill-rule="nonzero" d="M16.636 0H3.784C1.698 0 0 1.682 0 3.75v24.5C0 30.318 1.698 32 3.784 32h18.032c2.086 0 3.784-1.682 3.784-3.75V8.928L16.636 0zm.701 4.244l3.967 3.95h-2.705c-.696 0-1.262-.56-1.262-1.25v-2.7zm5.74 24.006c0 .69-.566 1.25-1.262 1.25H3.785c-.696 0-1.262-.56-1.262-1.25V3.75c0-.69.566-1.25 1.261-1.25h11.03v4.444c0 2.068 1.698 3.75 3.785 3.75h4.478V28.25zM5.109 24.5H20.56V27H5.11v-2.5zm5.676-5.688c1.74 0 3.154 1.402 3.154 3.125h2.523a5.611 5.611 0 0 0-2.543-4.687 3.705 3.705 0 0 0 .714-2.188c0-2.067-1.698-3.75-3.785-3.75s-3.784 1.683-3.784 3.75c0 .792.25 1.526.673 2.132a5.614 5.614 0 0 0-2.628 4.744h2.523c0-1.724 1.414-3.125 3.153-3.125zm.063-5c.696 0 1.262.561 1.262 1.25 0 .69-.566 1.25-1.262 1.25-.695 0-1.261-.56-1.261-1.25 0-.689.566-1.25 1.261-1.25z"/>
</svg>
