<svg xmlns="http://www.w3.org/2000/svg" width="29" height="32" viewBox="0 0 29 32">
    <path fill="#ffffff" fill-rule="nonzero" d="M12.983 22.793a6.93 6.93 0 0 0-1.403 2.417l-.027.081H5.646v-2.498h7.337zm-7.337-2.498h9.768l2.44-2.498H5.646v2.498zm-3.137 7.931V3.746c0-.688.563-1.248 1.255-1.248h17.935c.695 0 1.26.56 1.26 1.247v9.431h2.51V3.745C25.468 1.68 23.777 0 21.699 0H3.764C1.688 0 0 1.68 0 3.747v24.48c0 2.065 1.688 3.746 3.764 3.746H10.1v-2.498H3.764c-.692 0-1.255-.56-1.255-1.249zM28.8 20.952l-8.429 8.628a4.448 4.448 0 0 1-1.737 1.065l-.059.02L12.585 32l1.358-5.947.02-.057a4.419 4.419 0 0 1 1.064-1.722l8.43-8.629 5.343 5.307zm-3.526.027l-1.79-1.779-6.676 6.834a1.896 1.896 0 0 0-.136.15l1.772 1.766c.052-.042.101-.085.148-.132l6.682-6.84zm-6.518-11.93c0 2.965-4.168 5.534-5.003 6.019l-.328.189-.628.361-.628-.361-.328-.19c-.835-.484-5.003-3.053-5.003-6.018 0-1.058.372-2.017 1.05-2.701.663-.67 1.571-1.04 2.557-1.04.995 0 1.776.3 2.352.741.577-.44 1.357-.741 2.352-.741.986 0 1.894.37 2.558 1.04.677.684 1.05 1.643 1.05 2.7zm-2.509 0c0-.767-.42-1.243-1.098-1.243-.105 0-.2.007-.286.019-.278.108-.552.318-.806.571a.31.31 0 0 0-.007.032l.001-.026c-.704.704-1.247 1.723-1.247 1.723s-.545-1.003-1.26-1.706v.009l-.001-.01c-.273-.268-.571-.492-.874-.6a2.137 2.137 0 0 0-.224-.012c-.678 0-1.098.476-1.098 1.243 0 .979 1.736 2.613 3.45 3.676 1.714-1.062 3.45-2.697 3.45-3.676z"/>
</svg>
