<svg xmlns="http://www.w3.org/2000/svg" width="32" height="32" viewBox="0 0 32 32">
    <path fill="#ffffff" fill-rule="nonzero" d="M16 0c2.068 0 3.75 1.889 3.75 4.21v1.404h8.5c2.068 0 3.75 1.889 3.75 4.21V27.79C32 30.111 30.318 32 28.25 32H3.75C1.682 32 0 30.111 0 27.79V9.824c0-2.322 1.682-4.211 3.75-4.211h8.5V4.211C12.25 1.889 13.932 0 16 0zm-3.75 8.421h-8.5c-.69 0-1.25.63-1.25 1.404v17.964c0 .774.56 1.404 1.25 1.404h24.5c.69 0 1.25-.63 1.25-1.404V9.825c0-.774-.56-1.404-1.25-1.404h-8.5v2.807h-7.5V8.421zm-1.112 4.998c2.144 0 3.888 1.96 3.888 4.37a4.72 4.72 0 0 1-.725 2.538c1.835 1.204 3.07 3.44 3.07 5.996h-2.468c0-2.296-1.661-4.163-3.703-4.163s-3.703 1.867-3.703 4.163H5.03c0-2.515 1.196-4.722 2.983-5.938a4.714 4.714 0 0 1-.762-2.595c0-2.41 1.744-4.37 3.888-4.37zm13.548 7.226v2.58h-5.029v-2.58h5.029zm-13.548-4.45c-.782 0-1.42.715-1.42 1.595s.638 1.595 1.42 1.595c.783 0 1.42-.715 1.42-1.595s-.637-1.596-1.42-1.596zm15.833-.711v2.58h-7.314v-2.58h7.314zM16 2.807c-.69 0-1.25.63-1.25 1.404v4.21h2.5v-4.21c0-.774-.56-1.404-1.25-1.404z"/>
</svg>
