<svg xmlns="http://www.w3.org/2000/svg" width="32" height="32" viewBox="0 0 32 32">
    <path fill="#ffffff" fill-rule="nonzero" d="M32 14.609L16 0 0 14.609l1.683 1.847 1.455-1.328V28.25c0 2.067 1.68 3.749 3.746 3.749h18.232a3.752 3.752 0 0 0 3.746-3.75V15.129l1.455 1.328L32 14.609zM26.365 28.25c0 .689-.56 1.25-1.249 1.25H6.884a1.25 1.25 0 0 1-1.249-1.25V12.847L16 3.384l10.365 9.463v15.404zM14.75 8.129v11.588a3.756 3.756 0 0 0-2.497 3.534c0 2.068 1.68 3.75 3.746 3.75a3.752 3.752 0 0 0 3.746-3.75 3.756 3.756 0 0 0-2.497-3.534v-2.215h2.497v-2.5H17.25v-1.874h2.497v-2.5H17.25v-2.5H14.75zM16 24.5a1.25 1.25 0 0 1 0-2.5 1.25 1.25 0 0 1 0 2.5z"/>
</svg>
