<svg xmlns="http://www.w3.org/2000/svg" width="29" height="32" viewBox="0 0 29 32">
    <path fill="#ffffff" fill-rule="nonzero" d="M15.258 7.438H7.63v-2.5h7.63v2.5zm-7.629 2.5H5.086v2.5H7.63v-2.5zm2.543 2.5h2.543v-2.5h-2.543v2.5zm-2.543 2.5H5.086v2.5H7.63v-2.5zm2.543 2.5h2.543v-2.5h-2.543v2.5zm-2.543 2.5H5.086v2.5H7.63v-2.5zm2.543 2.5h2.543v-2.5h-2.543v2.5zm-5.086 5H7.63v-2.5H5.086v2.5zm5.086 0h2.543v-2.5h-2.543v2.5zm7.63-17.5h-2.544v2.5h2.543v-2.5zm0 5h-2.544v2.5h2.543v-2.5zM28.8 32h-2.543c0-2.516-2.082-4.563-4.641-4.563-2.56 0-4.641 2.047-4.641 4.563h-2.543c0-2.63 1.47-4.93 3.645-6.145a4.56 4.56 0 0 1-1.166-3.043c0-2.55 2.11-4.625 4.705-4.625 2.594 0 4.705 2.075 4.705 4.625a4.56 4.56 0 0 1-1.167 3.043C27.33 27.071 28.8 29.37 28.8 32zm-7.184-7.063c1.192 0 2.161-.953 2.161-2.125 0-1.171-.97-2.125-2.161-2.125-1.192 0-2.162.954-2.162 2.125 0 1.172.97 2.125 2.162 2.125zM2.543 7.438h2.543V2.5h12.715v4.938h2.543v8.36a7.397 7.397 0 0 1 2.543 0V4.937h-2.543V0H2.543v4.938H0V32h11.889c0-.865.118-1.703.338-2.5H2.543V7.437z"/>
</svg>
