<svg xmlns="http://www.w3.org/2000/svg" width="32" height="32" viewBox="0 0 32 32">
    <path fill="#ffffff" fill-rule="nonzero" d="M26.628 15.283l1.969-7.8A3.755 3.755 0 0 0 32 3.75 3.754 3.754 0 0 0 28.25 0a3.754 3.754 0 0 0-3.75 3.75c0 1.3.665 2.448 1.673 3.12l-1.968 7.8a8.642 8.642 0 0 0-6.085 1.681l-2.472-2.47a8.642 8.642 0 0 0 1.727-5.194C17.375 3.897 13.478 0 8.687 0 3.897 0 0 3.897 0 8.688c0 3.614 2.219 6.719 5.365 8.026l-2.021 7.808A3.755 3.755 0 0 0 0 28.25 3.754 3.754 0 0 0 3.75 32a3.754 3.754 0 0 0 3.75-3.75 3.75 3.75 0 0 0-1.723-3.152l2.012-7.77a8.643 8.643 0 0 0 6.092-1.68l2.47 2.472a8.642 8.642 0 0 0-1.726 5.192c0 4.79 3.897 8.688 8.688 8.688C28.102 32 32 28.103 32 23.312c0-3.616-2.222-6.723-5.372-8.029zM28.25 2.5c.69 0 1.25.56 1.25 1.25S28.94 5 28.25 5 27 4.44 27 3.75s.56-1.25 1.25-1.25zm-24.5 27c-.69 0-1.25-.56-1.25-1.25S3.06 27 3.75 27 5 27.56 5 28.25s-.56 1.25-1.25 1.25zM2.5 8.687A6.194 6.194 0 0 1 8.688 2.5a6.194 6.194 0 0 1 6.187 6.188 6.157 6.157 0 0 1-1.32 3.816 5.54 5.54 0 0 0-1.816-2.015c.439-.614.698-1.365.698-2.177a3.754 3.754 0 0 0-3.75-3.75 3.754 3.754 0 0 0-3.75 3.75c0 .812.26 1.563.7 2.177a5.538 5.538 0 0 0-1.817 2.015A6.157 6.157 0 0 1 2.5 8.688zm4.938-.374c0-.69.56-1.25 1.25-1.25.689 0 1.25.56 1.25 1.25 0 .689-.561 1.25-1.25 1.25-.69 0-1.25-.561-1.25-1.25zM5.822 14.17a3.006 3.006 0 0 1 2.864-2.108c1.344 0 2.484.888 2.865 2.108a6.152 6.152 0 0 1-2.864.704 6.152 6.152 0 0 1-2.865-.704zm14.625 14.625a3.006 3.006 0 0 1 2.864-2.108c1.344 0 2.484.888 2.865 2.108a6.152 6.152 0 0 1-2.864.704 6.152 6.152 0 0 1-2.865-.704zm1.614-5.858c0-.69.561-1.25 1.25-1.25.69 0 1.25.56 1.25 1.25 0 .689-.56 1.25-1.25 1.25-.689 0-1.25-.561-1.25-1.25zm6.118 4.19a5.54 5.54 0 0 0-1.816-2.014c.439-.614.698-1.365.698-2.177a3.754 3.754 0 0 0-3.75-3.75 3.754 3.754 0 0 0-3.75 3.75c0 .812.26 1.563.7 2.177a5.538 5.538 0 0 0-1.817 2.015 6.157 6.157 0 0 1-1.32-3.817 6.194 6.194 0 0 1 6.188-6.187 6.194 6.194 0 0 1 6.187 6.188 6.157 6.157 0 0 1-1.32 3.816z"/>
</svg>
