<svg xmlns="http://www.w3.org/2000/svg" width="31" height="32" viewBox="0 0 31 32">
    <path fill="#ffffff" fill-rule="nonzero" d="M20.474 9.875h-6.237v-2.5h6.237v2.5zm10.085-6.127v6.064c0 2.068-1.696 3.75-3.78 3.75h-1.203V28.25c0 2.068-1.695 3.75-3.78 3.75H3.78C1.695 32 0 30.318 0 28.25V3.75C0 1.682 1.695 0 3.78 0h23.245v.008c1.97.129 3.532 1.757 3.534 3.74zM23.272 2.5H3.78c-.695 0-1.26.56-1.26 1.25v24.5c0 .69.565 1.25 1.26 1.25h18.017c.694 0 1.26-.56 1.26-1.25V3.75c0-.438.075-.859.215-1.25zm4.767 1.249c0-.678-.551-1.232-1.234-1.249-.68.017-1.229.571-1.229 1.25v7.313h1.203c.694 0 1.26-.561 1.26-1.25V3.748zM12.407 7.267l-1.884-1.66-2.327 2.601-1.6-1.494-1.727 1.821 3.49 3.257 4.048-4.525zm8.067 7.608h-6.237v2.5h6.237v-2.5zm-8.067-.108l-1.884-1.66-2.327 2.601-1.6-1.494-1.727 1.821 3.49 3.257 4.048-4.525zm8.067 7.608h-6.237v2.5h6.237v-2.5zm-8.067-.108l-1.884-1.66-2.327 2.601-1.6-1.494-1.727 1.821 3.49 3.257 4.048-4.525z"/>
</svg>
