<svg xmlns="http://www.w3.org/2000/svg" width="32" height="32" viewBox="0 0 32 32">
    <path fill="#ffffff" fill-rule="nonzero" d="M25.399 16c2.1 0 3.808 1.667 3.808 3.716v1.638H32V32H18.8V21.354h2.791v-1.638C21.591 17.666 23.3 16 25.4 16zm4.063 7.874h-8.124v5.606h8.124v-5.606zM28.25 0C30.318 0 32 1.718 32 3.83v11.68h-2.5V9.703c0-2.042-.813-2.042-1.25-2.042-2.068 0-3.75-1.718-3.75-3.83 0-.74-.789-1.277-1.875-1.277H9.375C8.289 2.553 7.5 3.09 7.5 3.83c0 2.112-1.682 3.83-3.75 3.83-.437 0-1.25 0-1.25 2.042v4.596c0 2.042.813 2.042 1.25 2.042 2.068 0 3.75 1.718 3.75 3.83 0 .74.789 1.277 1.875 1.277H16.5V24H3.75C1.682 24 0 22.282 0 20.17V3.83C0 1.718 1.682 0 3.75 0zM2.5 18.7v1.47c0 .704.56 1.277 1.25 1.277h1.482A3.591 3.591 0 0 1 5 20.17c0-.704-.56-1.276-1.25-1.276-.448 0-.866-.066-1.25-.194zm22.899-.18c-.7 0-1.27.536-1.27 1.196v1.638h2.54v-1.638c0-.66-.57-1.196-1.27-1.196zM16 5.2c3.529 0 6.4 3.14 6.4 7s-2.871 7-6.4 7c-3.529 0-6.4-3.14-6.4-7s2.871-7 6.4-7zm0 2.545c-2.131 0-3.865 1.999-3.865 4.455s1.734 4.455 3.865 4.455c2.131 0 3.865-1.999 3.865-4.455S18.131 7.745 16 7.745zM26 10.8a1.2 1.2 0 1 1 0 2.4 1.2 1.2 0 0 1 0-2.4zm-20 0a1.2 1.2 0 1 1 0 2.4 1.2 1.2 0 0 1 0-2.4zm-.768-8.247H3.75c-.69 0-1.25.573-1.25 1.277V5.3a3.964 3.964 0 0 1 1.25-.194C4.44 5.106 5 4.534 5 3.83c0-.452.082-.88.232-1.277zm23.018 0h-1.482c.15.396.232.825.232 1.277 0 .704.56 1.276 1.25 1.276.448 0 .866.067 1.25.194V3.83c0-.704-.56-1.277-1.25-1.277z"/>
</svg>
