<svg xmlns="http://www.w3.org/2000/svg" width="30" height="34" viewBox="0 0 30 34">
    <path fill="#ffffff" fill-rule="nonzero" d="M5.294 24.57h9.281v2.657h-9.28V24.57zm0-2.59h9.281v-2.656h-9.28v2.656zm0-5.246h16.013v-2.656H5.294v2.656zM30 34h-2.614c0-2.673-2.14-4.848-4.772-4.848-2.63 0-4.77 2.175-4.77 4.848h-2.615a7.53 7.53 0 0 1 3.748-6.529 4.938 4.938 0 0 1-1.2-3.233c0-2.71 2.17-4.914 4.837-4.914s4.837 2.205 4.837 4.914a4.938 4.938 0 0 1-1.199 3.233A7.53 7.53 0 0 1 30 34zm-7.386-7.504c1.226 0 2.223-1.013 2.223-2.258s-.997-2.258-2.223-2.258c-1.225 0-2.222 1.013-2.222 2.258s.997 2.258 2.222 2.258zM3.922 31.344h9.04A10.284 10.284 0 0 0 12.614 34H3.922C1.759 34 0 32.213 0 30.016V3.984C0 1.787 1.76 0 3.922 0h13.317l9.29 9.486v8.315a7.298 7.298 0 0 0-2.607-1.017v-5.421h-4.648c-2.163 0-3.922-1.788-3.922-3.985V2.656H3.922a1.32 1.32 0 0 0-1.308 1.328v26.032a1.32 1.32 0 0 0 1.308 1.328zM19.274 8.706h2.809l-4.116-4.199v2.871c0 .733.586 1.328 1.307 1.328z"/>
</svg>
