<svg xmlns="http://www.w3.org/2000/svg" width="32" height="32" viewBox="0 0 32 32">
    <path fill="#ffffff" fill-rule="nonzero" d="M27.82 3.008h-.01c-.982 0-1.905.381-2.601 1.074-.2.2-.374.419-.522.652a10.858 10.858 0 0 0-1.245-1.515c-4.188-4.25-11.052-4.298-15.3-.108-.5.492-.949 1.031-1.34 1.606a3.715 3.715 0 0 0-.511-.635A3.66 3.66 0 0 0 3.68 3.008 3.693 3.693 0 0 0 0 6.705v15.37c.004 1.67.682 3.245 1.854 4.435l4.895 4.965h3.454l-6.598-6.692c-.717-.728-1.144-1.692-1.146-2.713V6.7a1.231 1.231 0 0 1 1.227-1.233h.003c.327 0 .635.127.867.358.233.232.361.54.362.868v10.948h.022a3.45 3.45 0 0 0 .03 1.029c.073.395.25 1.143.632 1.705.216.319 4.314 5.463 6.066 7.66l1.922-1.532c-2.248-2.821-5.673-7.128-5.958-7.517-.058-.09-.171-.368-.242-.757a.985.985 0 0 1 1.668-.868l5.974 6.055.107.11a12.06 12.06 0 0 1 3.236 6.505l.23 1.444h2.481l-.038-.287-.244-1.542a14.502 14.502 0 0 0-3.35-7.23l4.968-5.035a.98.98 0 0 1 1.668.869c-.07.388-.184.665-.242.757-.079.107-.545.71-3.046 3.857.48.76.897 1.555 1.25 2.38l.433-.546c3.228-4.06 3.335-4.218 3.393-4.303.381-.562.56-1.31.631-1.705.052-.282.067-.566.049-.846V11.07c.003-.163.003-.326 0-.489V6.694c0-.329.153-.637.385-.869a1.22 1.22 0 0 1 .868-.358h.002c.678.002 1.205.555 1.204 1.233v15.37a3.863 3.863 0 0 1-1.123 2.713l-6.598 6.692h3.454l4.895-4.965a6.307 6.307 0 0 0 1.83-4.435V6.705c.005-2.034-1.622-3.693-3.656-3.697zM20.67 15.654l-3.323 3.368a8.46 8.46 0 0 1-3.191.005l-3.348-3.393a3.42 3.42 0 0 0-2.427-1.026l-.097.002C6.66 11.41 7.274 7.42 9.868 4.862a8.361 8.361 0 1 1 13.314 9.768l-.084-.002a3.42 3.42 0 0 0-2.427 1.026zm-1.675-2.905c0 1.282-.824 2.415-1.967 2.901v1.56h-2.46v-1.55a3.25 3.25 0 0 1-.997-.651 3.055 3.055 0 0 1-.97-2.225h2.46c0 .345.349.66.733.66.374 0 .742-.344.742-.695 0-.243-.706-.608-1.222-.874l-.085-.043c-.81-.419-2.32-1.199-2.32-3.134 0-1.13.68-2.106 1.66-2.558V4.483h2.459V6.14c.98.448 1.66 1.411 1.66 2.525h-2.46c0-.174-.207-.333-.434-.333-.219 0-.426.178-.426.367 0 .31.09.484.99.949l.083.043c.53.273 1.077.555 1.542.958.672.582 1.012 1.29 1.012 2.101z"/>
</svg>
