<svg xmlns="http://www.w3.org/2000/svg" width="32" height="32" viewBox="0 0 32 32">
    <path fill="#ffffff" fill-rule="nonzero" d="M2.5 0v29.5H32V32H0V0h2.5zm25.822 0a3.687 3.687 0 1 1-.446 7.345l-3.402 9.64a3.687 3.687 0 0 1-2.59 6.302 3.687 3.687 0 0 1-3.242-5.424l-3.163-3.632a3.65 3.65 0 0 1-1.659.258l-2.356 5.408a3.687 3.687 0 0 1-2.268 6.586 3.687 3.687 0 0 1-.065-7.372l2.447-5.617A3.687 3.687 0 0 1 14.1 7.127a3.687 3.687 0 0 1 3.215 5.474l3.138 3.604a3.651 3.651 0 0 1 1.792-.273l3.422-9.698A3.687 3.687 0 0 1 28.322 0zM9.195 21.567a1.229 1.229 0 0 0 0 2.458 1.229 1.229 0 0 0 0-2.458zm12.69-3.195a1.229 1.229 0 0 0 0 2.458 1.229 1.229 0 0 0 0-2.458zM14.1 9.585a1.229 1.229 0 0 0 0 2.458 1.229 1.229 0 0 0 0-2.458zm14.222-7.127a1.229 1.229 0 0 0 0 2.458 1.229 1.229 0 0 0 0-2.458z"/>
</svg>
