<svg xmlns="http://www.w3.org/2000/svg" width="31" height="32" viewBox="0 0 31 32">
    <path fill="#ffffff" fill-rule="nonzero" d="M2.539 12.438v8h2.538V32H2.54v-9.063H0v-10.5c0-2.067 1.708-3.75 3.808-3.75h5.077c.406 0 .796.064 1.163.18a6.031 6.031 0 0 0-2.644 2.32H3.808c-.7 0-1.27.561-1.27 1.25zM30.4 24.526l-2.095-12.883-.007-.039c-.344-1.762-1.917-3.041-3.74-3.041h-3.421c-.45 0-.886.078-1.291.222a6.036 6.036 0 0 1 2.754 2.277h1.959c.602 0 1.122.42 1.243.999l1.87 11.502h-12.44v2.5h3.808V32h2.538v-5.938h2.539V32h2.539v-5.938H30.4v-1.536zM2.539 3.75C2.539 1.682 4.247 0 6.347 0c2.1 0 3.807 1.682 3.807 3.75S8.446 7.5 6.347 7.5c-2.1 0-3.808-1.682-3.808-3.75zm2.538 0c0 .69.57 1.25 1.27 1.25.7 0 1.269-.56 1.269-1.25s-.57-1.25-1.27-1.25c-.7 0-1.269.56-1.269 1.25zM7.616 32h2.538V20.437H7.616V32zM19.04 3.75c0-2.068 1.708-3.75 3.808-3.75 2.1 0 3.808 1.682 3.808 3.75S24.947 7.5 22.848 7.5c-2.1 0-3.808-1.682-3.808-3.75zm2.538 0c0 .69.57 1.25 1.27 1.25.7 0 1.269-.56 1.269-1.25s-.57-1.25-1.27-1.25c-.7 0-1.269.56-1.269 1.25zm-6.537 17.363s-.863-.49-.965-.55c-.846-.483-5.064-3.049-5.064-6.012 0-1.058.378-2.017 1.063-2.7.672-.67 1.59-1.039 2.586-1.039 1.008 0 1.797.301 2.38.741.583-.44 1.373-.74 2.38-.74.997 0 1.915.368 2.586 1.038.686.683 1.064 1.642 1.064 2.7 0 2.963-4.218 5.529-5.064 6.013l-.966.549zm0-2.894c1.734-1.06 3.49-2.692 3.49-3.668 0-.764-.425-1.239-1.11-1.239-1.11 0-2.386 2.313-2.386 2.313s-1.2-2.313-2.374-2.313c-.685 0-1.11.475-1.11 1.239 0 .976 1.756 2.607 3.49 3.668z"/>
</svg>
