<svg xmlns="http://www.w3.org/2000/svg" width="32" height="32" viewBox="0 0 32 32">
    <path fill="#ffffff" fill-rule="nonzero" d="M31.067 7.562a12.193 12.193 0 0 0-2.655-3.974A12.19 12.19 0 0 0 24.438.933 12.185 12.185 0 0 0 19.75 0H18.5v13.5H32v-1.25c0-1.616-.314-3.194-.933-4.688zM23.37 3.203L21 5.573V2.582c.813.107 1.61.317 2.37.621zM21 9.108l4.632-4.631a9.552 9.552 0 0 1 1.891 1.891L22.892 11H21V9.108zM26.427 11l2.37-2.37c.304.76.514 1.557.621 2.37h-2.991zM16 2.5h-1.25c-3.94 0-7.644 1.534-10.43 4.32A14.654 14.654 0 0 0 0 17.25c0 3.94 1.534 7.644 4.32 10.43A14.654 14.654 0 0 0 14.75 32c3.94 0 7.644-1.534 10.43-4.32a14.654 14.654 0 0 0 4.32-10.43V16H16V2.5zm10.937 16c-.628 6.17-5.854 11-12.187 11-6.755 0-12.25-5.495-12.25-12.25 0-6.333 4.83-11.559 11-12.187V18.5h13.437z"/>
</svg>
