<svg xmlns="http://www.w3.org/2000/svg" width="34" height="34" viewBox="0 0 34 34">
    <path fill="#ffffff" fill-rule="nonzero" d="M31.61 31.344V12.396L20.983 7.05V5.246h-2.656V2.59h-5.312V0h-2.657v2.59H5.047v2.656H2.39v26.098H0V34h34v-2.656h-2.39zm-2.657-17.31v17.31h-7.969v-21.32l7.97 4.01zM5.047 7.901h2.656V5.246h7.969v2.656h2.656v23.442H5.047V7.902zm2.656 2.657h2.656v2.656H7.703v-2.656zm5.313 0h2.656v2.656h-2.656v-2.656zM7.703 15.87h2.656v2.656H7.703v-2.656zm5.313 0h2.656v2.656h-2.656v-2.656zm-5.313 5.313h2.656v2.656H7.703v-2.656zm5.313 0h2.656v2.656h-2.656v-2.656zm-5.313 5.312h2.656v2.656H7.703v-2.656zm5.313 0h2.656v2.656h-2.656v-2.656zm13.28-7.969h-2.655v-2.656h2.656v2.656zm0 5.313h-2.655v-2.656h2.656v2.656zm-2.655 5.312v-2.656h2.656v2.656H23.64z"/>
</svg>
