<svg xmlns="http://www.w3.org/2000/svg" width="32" height="32" viewBox="0 0 32 32">
    <path fill="#ffffff" fill-rule="nonzero" d="M32 13.599L16 0 0 13.599l1.638 1.846 1.373-1.167v13.255c0 2.022 1.68 3.667 3.747 3.667h18.484c2.066 0 3.747-1.645 3.747-3.667V14.278l1.373 1.167L32 13.599zm-5.509 13.934c0 .674-.56 1.222-1.249 1.222H6.758c-.689 0-1.25-.548-1.25-1.222V12.155L16 3.238l10.491 8.917v15.378zM10.317 16.101v.033c.01 2.242 1.011 3.35 1.743 4.16.568.628.88.974.88 1.766v1.512c0 1.308 1.081 2.372 2.41 2.372h1.41c1.337 0 2.425-1.064 2.425-2.372V22.06c0-.809.317-1.177.843-1.788.695-.808 1.646-1.912 1.655-4.138V16.1a5.55 5.55 0 0 0-1.619-3.91 5.608 5.608 0 0 0-4.009-1.649c-3.153 0-5.72 2.49-5.738 5.56zm5.121 7.398v-1.222h1.249v1.222h-1.249zm.617-10.512c1.75 0 3.122 1.375 3.13 3.133-.005 1.341-.474 1.887-1.068 2.577-.28.327-.591.688-.851 1.135h-2.427c-.276-.458-.608-.826-.908-1.157-.645-.714-1.111-1.23-1.116-2.555.008-1.729 1.458-3.133 3.24-3.133z"/>
</svg>
