<svg xmlns="http://www.w3.org/2000/svg" width="32" height="32" viewBox="0 0 32 32">
    <path fill="#ffffff" fill-rule="nonzero" d="M7.313 18.938h-2.5V13.75h9.937v-2.563h2.5v2.563h10v5.188h-2.5V16.25h-7.5v2.688h-2.5V16.25H7.312v2.688zm5-7.75h-2.5a6.19 6.19 0 0 1 3.076-5.347 3.729 3.729 0 0 1-.639-2.091A3.754 3.754 0 0 1 16 0a3.754 3.754 0 0 1 3.75 3.75c0 .774-.236 1.493-.639 2.091a6.19 6.19 0 0 1 3.076 5.346h-2.5A3.692 3.692 0 0 0 16 7.5a3.692 3.692 0 0 0-3.688 3.688zM16 5c.69 0 1.25-.56 1.25-1.25S16.69 2.5 16 2.5s-1.25.56-1.25 1.25S15.31 5 16 5zm16 27h-2.5a3.67 3.67 0 0 0-3.667-3.667A3.67 3.67 0 0 0 22.167 32h-2.5A3.671 3.671 0 0 0 16 28.333 3.671 3.671 0 0 0 12.333 32h-2.5a3.67 3.67 0 0 0-3.666-3.667A3.67 3.67 0 0 0 2.5 32H0a6.169 6.169 0 0 1 2.994-5.286 3.728 3.728 0 0 1-.682-2.151 3.754 3.754 0 0 1 3.75-3.75 3.754 3.754 0 0 1 3.75 3.75c0 .762-.229 1.472-.621 2.064a6.213 6.213 0 0 1 1.892 1.655 6.218 6.218 0 0 1 1.818-1.611 3.727 3.727 0 0 1-.651-2.108 3.754 3.754 0 0 1 3.75-3.75 3.754 3.754 0 0 1 3.75 3.75c0 .78-.24 1.507-.65 2.108a6.218 6.218 0 0 1 1.817 1.611 6.21 6.21 0 0 1 1.938-1.68 3.726 3.726 0 0 1-.605-2.04 3.754 3.754 0 0 1 3.75-3.75 3.754 3.754 0 0 1 3.75 3.75 3.73 3.73 0 0 1-.7 2.178A6.169 6.169 0 0 1 32 32zM4.812 24.562c0 .69.561 1.25 1.25 1.25.69 0 1.25-.56 1.25-1.25 0-.689-.56-1.25-1.25-1.25-.689 0-1.25.561-1.25 1.25zm9.938 0c0 .69.56 1.25 1.25 1.25s1.25-.56 1.25-1.25c0-.689-.56-1.25-1.25-1.25s-1.25.561-1.25 1.25zm10 0c0 .69.56 1.25 1.25 1.25s1.25-.56 1.25-1.25c0-.689-.56-1.25-1.25-1.25s-1.25.561-1.25 1.25z"/>
</svg>
