<svg xmlns="http://www.w3.org/2000/svg" width="32" height="32" viewBox="0 0 32 32">
    <path fill="#ffffff" fill-rule="nonzero" d="M8.73 27.313a3.728 3.728 0 0 0 .707-2.188 3.754 3.754 0 0 0-3.75-3.75 3.754 3.754 0 0 0-3.75 3.75c0 .791.248 1.526.668 2.132A5.626 5.626 0 0 0 0 32h2.5a3.129 3.129 0 0 1 3.125-3.125A3.129 3.129 0 0 1 8.75 32h2.5a5.624 5.624 0 0 0-2.52-4.688zm-3.043-3.438c.69 0 1.25.56 1.25 1.25s-.56 1.25-1.25 1.25c-.689 0-1.25-.56-1.25-1.25s.561-1.25 1.25-1.25zm23.793 3.438a3.728 3.728 0 0 0 .707-2.188 3.754 3.754 0 0 0-3.75-3.75 3.754 3.754 0 0 0-3.75 3.75c0 .791.248 1.526.668 2.132A5.626 5.626 0 0 0 20.75 32h2.5a3.129 3.129 0 0 1 3.125-3.125A3.129 3.129 0 0 1 29.5 32H32a5.624 5.624 0 0 0-2.52-4.688zm-3.043-3.438c.69 0 1.25.56 1.25 1.25s-.56 1.25-1.25 1.25c-.689 0-1.25-.56-1.25-1.25s.561-1.25 1.25-1.25zM15.938 7.5a3.129 3.129 0 0 1 3.126 3.125h2.5a5.624 5.624 0 0 0-2.52-4.688 3.728 3.728 0 0 0 .707-2.187A3.754 3.754 0 0 0 16 0a3.754 3.754 0 0 0-3.75 3.75c0 .791.247 1.526.667 2.132a5.626 5.626 0 0 0-2.604 4.743h2.5A3.129 3.129 0 0 1 15.937 7.5zm.063-5c.69 0 1.25.56 1.25 1.25S16.69 5 16 5s-1.25-.56-1.25-1.25S15.31 2.5 16 2.5zm-5.021 19.703L9.52 20.172l5.229-3.751v-5.796h2.5v5.781l5.303 3.659-1.419 2.058-5.12-3.532-5.035 3.612z"/>
</svg>
