<svg xmlns="http://www.w3.org/2000/svg" width="32" height="20" viewBox="0 0 32 20">
    <path fill="#ffffff" fill-rule="nonzero" d="M29.782 8.079c-1.75-.586-4.102-1.094-5.407-1.355V6.71h-.064a67.533 67.533 0 0 0-.39-.077l-3.194-4.756C19.937.702 18.64 0 17.256 0H9.688C7.938 0 6.35 1.136 5.735 2.827L4.27 6.71h-.52C1.682 6.711 0 8.45 0 10.586v2.648c0 2.137 1.682 3.875 3.75 3.875h1.152c.517 1.503 1.906 2.583 3.535 2.583 1.63 0 3.02-1.08 3.536-2.583h7.742c.516 1.503 1.905 2.583 3.535 2.583 1.63 0 3.019-1.08 3.535-2.583H32v-5.87c0-1.447-.891-2.717-2.218-3.16zM8.067 3.757l.007-.017c.25-.692.899-1.157 1.614-1.157h7.568c.565 0 1.094.287 1.416.767l2.257 3.361H6.954l1.113-2.954zm.37 13.352c-.689 0-1.25-.58-1.25-1.292 0-.712.561-1.291 1.25-1.291.69 0 1.25.58 1.25 1.291 0 .713-.56 1.292-1.25 1.292zm14.813 0c-.69 0-1.25-.58-1.25-1.292 0-.712.56-1.291 1.25-1.291s1.25.58 1.25 1.291c0 .713-.56 1.292-1.25 1.292zm6.25-2.583h-2.715c-.516-1.504-1.905-2.584-3.535-2.584-1.63 0-3.019 1.08-3.535 2.584h-7.742c-.517-1.504-1.906-2.584-3.536-2.584-1.63 0-3.018 1.08-3.534 2.584H3.75c-.69 0-1.25-.58-1.25-1.292v-2.648c0-.712.56-1.292 1.25-1.292h20.317c1.275.26 3.402.726 4.945 1.242.292.098.488.38.488.703v3.287z"/>
</svg>
